<svg width="400" height="400" viewBox="0 0 800 800" xmlns="http://www.w3.org/2000/svg">
  <defs>
    <linearGradient id="ocean">
      <stop stop-color="#b4bdff" offset="0"/>
      <stop stop-color="#0068c9" offset="1"/>
    </linearGradient>
    <linearGradient id="l">
      <stop stop-color="#00e732" offset="0"/>
      <stop stop-color="#368538" offset="1"/>
    </linearGradient>
    <linearGradient id="land1" x1="-364.9" x2="-364.9" y1="-2181.2" y2="-1544.3" gradientTransform="matrix(.0022 -1 .59178 .0013 1324 -82)" gradientUnits="userSpaceOnUse" href="#l"/>
    <linearGradient id="land2" x1="1140.7" x2="1140.7" y1="-172.2" y2="491" gradientTransform="matrix(.00165 -1 .55961 .00092 523 1490)" gradientUnits="userSpaceOnUse" href="#l"/>
    <linearGradient id="b">
      <stop stop-color="#fff" offset="0"/>
      <stop stop-color="#323232" offset="1"/>
    </linearGradient>
    <radialGradient id="ba" cx="1466.5" cy="230" r="102.7" gradientTransform="matrix(1.6837 -.00877 .0052 .99999 -1004 13)" gradientUnits="userSpaceOnUse" href="#b"/>
    <radialGradient id="bb" cx="1462.9" cy="365.3" r="107" gradientTransform="matrix(1.6898 .00841 -.00498 .99999 -1007 -12)" gradientUnits="userSpaceOnUse" href="#b"/>
    <radialGradient id="bc" cx="1465.1" cy="513.2" r="106.2" gradientTransform="matrix(1.6945 -.05082 .02998 .99955 -1033 75)" gradientUnits="userSpaceOnUse" href="#b"/>
  </defs>
  <circle cx="400" cy="400" r="387" fill="url(#ocean)" stroke="#000" stroke-width="24"/>
  <g transform="translate(-1069 49.6)" stroke="#000" stroke-width="22">
    <rect x="1391.5" y="78.5" width="137.1" height="56" rx="7.2" ry="7.2" fill="none"/>
    <path d="m1564 233-75-97-59 1-71 95v66l17 20h172l16-20z" fill="url(#ba)" fill-opacity=".3" stroke-linejoin="round"/>
    <rect x="1355.9" y="324.4" width="213.9" height="81.8" rx="16.5" ry="16.5" fill="url(#bb)" fill-opacity=".3"/>
    <rect x="1358.8" y="416.3" width="212.5" height="193.8" rx="30.2" ry="30.2" fill="url(#bc)" fill-opacity=".3"/>
  </g>
  <g fill-opacity=".9" stroke="#000" stroke-linejoin="round" stroke-width="24">
		<path d="M18 339.6c-2 12 100 15 104 17l40 19c17 11 14 31 22 47l28 56c5 9 3 54 4 63 9 47-46 72-24 115 11 22 41 56 80 32 2-1 8-111 53-89 56 28 17-38 26-69 22-71-4-78-8-83-12-13-20-29-34-40-10-8-46-32-45-36 4-19 8-22 20-37 10-14 40-14 40-31 1-21-36-28-38-49-3-30 17-59 24-89 2-12 10-25 5-53-2-15-39-79-41-78A372 372 0 0 0 18 339.6z" fill="url(#land1)"/>
		<path transform="translate(3 0)" d="M637 97.6c2-21-205 80-222 116 0-7-23 41-19 53-2 26 18 38 22 38 36 15 65 9 95 20 36 13 62 72 62 72 25 62 9 142-57 169-114 59-48 179 9 194 225-54 391-432 110-659z" fill="url(#land2)"/>
  </g>
</svg>
