<svg viewBox="65.9 -147.6 797.7 795.5" width="797.7" height="795.5" xmlns="http://www.w3.org/2000/svg" xmlns:xlink="http://www.w3.org/1999/xlink">
  <defs>
    <linearGradient id="d" gradientUnits="userSpaceOnUse" x1="18.3" y1="-632.9" x2="18.3" y2="137.1" gradientTransform="matrix(-.00857 -.99996 .91555 -.00784 643 410)" xlink:href="#a"/>
    <linearGradient id="a">
      <stop offset="0" stop-color="#a2c1f4"/>
      <stop offset=".7" stop-color="#4394df"/>
    </linearGradient>
    <linearGradient id="b">
      <stop offset="0" stop-color="#fff"/>
      <stop offset="1" stop-color="#323232"/>
    </linearGradient>
    <linearGradient id="h" gradientUnits="userSpaceOnUse" x1="-364.9" y1="-2181.2" x2="-364.9" y2="-1544.3" gradientTransform="matrix(.0022 -1 .59178 .0013 1324 -82)" xlink:href="#c"/>
    <linearGradient id="c">
      <stop offset="0" stop-color="#00e732"/>
      <stop offset="1" stop-color="#368538"/>
    </linearGradient>
    <linearGradient id="i" gradientUnits="userSpaceOnUse" x1="1140.7" y1="-172.2" x2="1140.7" y2="491" gradientTransform="matrix(.00165 -1 .55961 .00092 523 1490)" xlink:href="#c"/>
    <radialGradient id="e" gradientUnits="userSpaceOnUse" cx="1466.5" cy="230" r="102.7" gradientTransform="matrix(1.6837 -.00877 .0052 .99999 -1004 13)" xlink:href="#b"/>
    <radialGradient id="f" gradientUnits="userSpaceOnUse" cx="1462.9" cy="365.3" r="107" gradientTransform="matrix(1.68982 .00841 -.00498 .99999 -1007 -12)" xlink:href="#b"/>
    <radialGradient id="g" gradientUnits="userSpaceOnUse" cx="1465.1" cy="513.2" r="106.2" gradientTransform="matrix(1.69448 -.05082 .02998 .99955 -1033 75)" xlink:href="#b"/>
  </defs>
  <circle cx="401" cy="400" r="385" transform="translate(63 -150)" color="#000" stroke-width="24" paint-order="fill" fill="url(#d)" stroke="#000"/>
  <g transform="translate(-1004 -98)">
    <rect x="1391.5" y="78.5" width="137.1" height="56" rx="7.2" ry="7.2" fill="none" stroke="#000" stroke-width="22"/>
    <path stroke="#000" stroke-width="22" fill="url(#e)" fill-opacity=".3" stroke-linejoin="round" d="M1564 233l-75-97-59 1-71 95v66l17 20h172l16-20z"/>
    <rect x="1355.9" y="324.4" width="213.9" height="81.8" rx="16.5" ry="16.5" stroke="#000" stroke-width="22" fill="url(#f)" fill-opacity=".3"/>
    <rect x="1358.8" y="416.3" width="212.5" height="193.8" rx="30.2" ry="30.2" stroke="#000" stroke-width="22" fill="url(#g)" fill-opacity=".3"/>
  </g>
  <g transform="translate(64 -150)">
    <path d="M20 342c-2 12 100 15 104 17l40 19c17 11 14 31 22 47l28 56c5 9 3 54 4 63 9 47-46 72-24 115 11 22 41 56 80 32 2-1 8-111 53-89 56 28 17-38 26-69 22-71-4-78-8-83-12-13-20-29-34-40-10-8-46-32-45-36 4-19 8-22 20-37 10-14 40-14 40-31 1-21-36-28-38-49-3-30 17-59 24-89 2-12 10-25 5-53-2-15-39-79-41-78A372 372 0 0020 342z" stroke-linejoin="round" fill="url(#h)" stroke-width="24" stroke="#000" fill-opacity=".9"/>
    <path d="M639 100c2-21-205 80-222 116 0-7-23 41-19 53-2 26 18 38 22 38 36 15 65 9 95 20 36 13 62 72 62 72 25 62 9 142-57 169-114 59-48 179 9 191 225-54 391-432 110-659z" stroke-linejoin="round" fill="url(#i)" stroke="#000" stroke-width="24" fill-opacity=".9"/>
  </g>
</svg>
